D:\Documents\paper\Opensim\Pipline\Result\dingzhejin\30DJ0001\original_data\dingzhejin_30DJ0001_grf.mot
version=1
nRows=34
nColumns=19
inDegrees=yes
endheader
time	ground_force_vx	ground_force_vy	ground_force_vz	ground_force_px	ground_force_py	ground_force_pz	1_ground_force_vx	1_ground_force_vy	1_ground_force_vz	1_ground_force_px	1_ground_force_py	1_ground_force_pz	ground_torque_x	ground_torque_y	ground_torque_z	1_ground_torque_x	1_ground_torque_y	1_ground_torque_z
2.142700e+01	-0.192793	-0.685511	0.764827	0.300000	0.000000	0.200000	-0.042580	0.012622	0.122876	0.300000	0.000000	0.610000	-0.000000	0.327768	-0.000000	16168279910.129141	0.181376	-39263127787.582764	
2.142800e+01	-0.192951	-0.690248	0.766292	0.300000	0.000000	0.200000	-0.044363	0.019454	0.123577	0.300000	0.000000	0.610000	-0.000000	0.327506	-0.000000	13754788860.421268	0.180967	-33367589395.326717	
2.142900e+01	-0.192686	-0.696756	0.766736	0.300000	0.000000	0.200000	-0.045219	0.022655	0.122198	0.300000	0.000000	0.610000	-0.000000	0.327244	-0.000000	10439412083.357719	0.180825	-25327179246.024372	
2.143000e+01	-0.191742	-0.704961	0.767506	0.300000	0.000000	0.200000	-0.044196	0.019757	0.119195	0.300000	0.000000	0.610000	-0.000000	0.327178	-0.000000	7178220282.173891	0.180944	-17422520508.247513	
2.143100e+01	-0.189984	-0.715339	0.768946	0.300000	0.000000	0.200000	-0.041028	0.009732	0.115374	0.300000	0.000000	0.610000	-0.000000	0.327500	-0.000000	4621032901.505548	0.181114	-11222614623.376209	
2.143200e+01	-0.187227	-0.728061	0.769811	0.300000	0.000000	0.200000	-0.036116	-0.005345	0.111335	0.300000	0.000000	0.610000	-0.000000	0.328187	-0.000000	2864552354.474523	0.181120	-6966756704.787770	
2.143300e+01	-0.183450	-0.740623	0.769003	0.300000	0.000000	0.200000	-0.030352	-0.021353	0.107133	0.300000	0.000000	0.610000	-0.000000	0.328941	-0.000000	1748155769.400366	0.180920	-4268585895.461300	
2.143400e+01	-0.179382	-0.747900	0.766832	0.300000	0.000000	0.200000	-0.025059	-0.034366	0.102480	0.300000	0.000000	0.610000	-0.000000	0.329419	-0.000000	1086829943.886501	0.180648	-2683185029.798961	
2.143500e+01	-0.176036	-0.746728	0.764487	0.300000	0.000000	0.200000	-0.021274	-0.041876	0.097641	0.300000	0.000000	0.610000	-0.000000	0.329487	-0.000000	739226934.163319	0.180474	-1873703669.755510	
2.143600e+01	-0.173575	-0.739515	0.762908	0.300000	0.000000	0.200000	-0.019164	-0.043034	0.093964	0.300000	0.000000	0.610000	-0.000000	0.329210	-0.000000	619220797.666979	0.180440	-1640932923.706649	
2.143700e+01	-0.171707	-0.731053	0.762201	0.300000	0.000000	0.200000	-0.018509	-0.038927	0.092991	0.300000	0.000000	0.610000	-0.000000	0.328708	-0.000000	691576562.056916	0.180474	-1914492444.119605	
2.143800e+01	-0.170699	-0.723446	0.762078	0.300000	0.000000	0.200000	-0.019218	-0.032104	0.094988	0.300000	0.000000	0.610000	-0.000000	0.328090	-0.000000	965295395.467106	0.180501	-2738012128.783736	
2.143900e+01	-0.171042	-0.716476	0.762244	0.300000	0.000000	0.200000	-0.021382	-0.024666	0.098669	0.300000	0.000000	0.610000	-0.000000	0.327429	-0.000000	1486143553.698894	0.180484	-4249888946.214796	
2.144000e+01	-0.172892	-0.710058	0.762144	0.300000	0.000000	0.200000	-0.024957	-0.017517	0.102273	0.300000	0.000000	0.610000	-0.000000	0.326788	-0.000000	2319377959.483798	0.180395	-6631973978.200721	
2.144100e+01	-0.175654	-0.704214	0.760906	0.300000	0.000000	0.200000	-0.029246	-0.011370	0.104578	0.300000	0.000000	0.610000	-0.000000	0.326218	-0.000000	3496400232.134282	0.180194	-9947622239.137295	
2.144200e+01	-0.177753	-0.698761	0.757780	0.300000	0.000000	0.200000	-0.033195	-0.006996	0.105193	0.300000	0.000000	0.610000	-0.000000	0.325783	-0.000000	4860951039.127284	0.179815	-13677208725.767937	
2.144300e+01	-0.177773	-0.694182	0.752946	0.300000	0.000000	0.200000	-0.036436	-0.004828	0.104424	0.300000	0.000000	0.610000	-0.000000	0.325664	-0.000000	6017900036.654247	0.179217	-16572730377.219923	
2.144400e+01	-0.175645	-0.691541	0.747634	0.300000	0.000000	0.200000	-0.039559	-0.004833	0.102933	0.300000	0.000000	0.610000	-0.000000	0.326002	-0.000000	6725189498.009680	0.178442	-17880618236.745895	
2.144500e+01	-0.172330	-0.691269	0.743107	0.300000	0.000000	0.200000	-0.042963	-0.006719	0.101537	0.300000	0.000000	0.610000	-0.000000	0.326635	-0.000000	7120787998.490245	0.177615	-18140528907.870239	
2.144600e+01	-0.168702	-0.693400	0.740050	0.300000	0.000000	0.200000	-0.045799	-0.010645	0.100812	0.300000	0.000000	0.610000	-0.000000	0.327258	-0.000000	7219841438.382391	0.176921	-17762388030.301537	
2.144700e+01	-0.165127	-0.698410	0.738714	0.300000	0.000000	0.200000	-0.046658	-0.017206	0.100206	0.300000	0.000000	0.610000	-0.000000	0.327719	-0.000000	6736312463.013187	0.176546	-16258753059.463964	
2.144800e+01	-0.162342	-0.706450	0.739080	0.300000	0.000000	0.200000	-0.045089	-0.025891	0.098179	0.300000	0.000000	0.610000	-0.000000	0.328048	-0.000000	5687769120.518274	0.176564	-13648922079.759310	
2.144900e+01	-0.161706	-0.716633	0.740893	0.300000	0.000000	0.200000	-0.041988	-0.034145	0.093863	0.300000	0.000000	0.610000	-0.000000	0.328335	-0.000000	4578435024.573981	0.176877	-11037450347.786510	
2.145000e+01	-0.163605	-0.727411	0.743584	0.300000	0.000000	0.200000	-0.038795	-0.038769	0.088184	0.300000	0.000000	0.610000	-0.000000	0.328622	-0.000000	3883765563.761795	0.177210	-9489665684.249432	
2.145100e+01	-0.166722	-0.736846	0.746331	0.300000	0.000000	0.200000	-0.036555	-0.038293	0.083199	0.300000	0.000000	0.610000	-0.000000	0.328820	-0.000000	3723047018.094004	0.177268	-9256852769.162651	
2.145200e+01	-0.169358	-0.743133	0.748187	0.300000	0.000000	0.200000	-0.035115	-0.034049	0.080318	0.300000	0.000000	0.610000	-0.000000	0.328809	-0.000000	3862201683.673110	0.176956	-9736546637.928917	
2.145300e+01	-0.170621	-0.746043	0.748067	0.300000	0.000000	0.200000	-0.033235	-0.029048	0.079250	0.300000	0.000000	0.610000	-0.000000	0.328537	-0.000000	3825978192.436015	0.176368	-9720633606.023483	
2.145400e+01	-0.170498	-0.747051	0.745564	0.300000	0.000000	0.200000	-0.029963	-0.025539	0.079109	0.300000	0.000000	0.610000	-0.000000	0.328039	-0.000000	3310770663.773556	0.175649	-8442634155.919535	
2.145500e+01	-0.169564	-0.747363	0.742073	0.300000	0.000000	0.200000	-0.025649	-0.023756	0.080050	0.300000	0.000000	0.610000	-0.000000	0.327477	-0.000000	2500609329.278737	0.174969	-6386240152.047621	
2.145600e+01	-0.168558	-0.747079	0.739677	0.300000	0.000000	0.200000	-0.021755	-0.022909	0.082949	0.300000	0.000000	0.610000	-0.000000	0.327039	-0.000000	1760294030.706251	0.174413	-4496116224.058362	
2.145700e+01	-0.167794	-0.746468	0.739157	0.300000	0.000000	0.200000	-0.019943	-0.022075	0.087786	0.300000	0.000000	0.610000	-0.000000	0.326794	-0.000000	1266556203.584312	0.173837	-3230289428.423729	
2.145800e+01	-0.166935	-0.746773	0.740265	0.300000	0.000000	0.200000	-0.020785	-0.020263	0.093235	0.300000	0.000000	0.610000	-0.000000	0.326728	-0.000000	1040251052.730215	0.173076	-2643484571.487804	
2.145900e+01	-0.165337	-0.749032	0.742594	0.300000	0.000000	0.200000	-0.023446	-0.017155	0.097831	0.300000	0.000000	0.610000	-0.000000	0.326817	-0.000000	1074509662.273876	0.172215	-2716854856.730073	
2.146000e+01	-0.162379	-0.752758	0.745446	0.300000	0.000000	0.200000	-0.026958	-0.013452	0.100862	0.300000	0.000000	0.610000	-0.000000	0.327056	-0.000000	1378069093.003335	0.171455	-3469364429.126153	
